<svg width="21" height="21" xmlns="http://www.w3.org/2000/svg" xmlns:xlink="http://www.w3.org/1999/xlink" overflow="hidden"><defs><clipPath id="clip0"><rect x="28" y="625" width="21" height="21"/></clipPath></defs><g clip-path="url(#clip0)" transform="translate(-28 -625)"><path d="M46.1805 625C47.7377 625 49 626.262 49 627.82L49 643.18C49 644.738 47.7377 646 46.1805 646L30.8195 646C29.2623 646 28 644.738 28 643.18L28 627.82C28 626.262 29.2623 625 30.8195 625Z" fill="#FBE300"/><path d="M36.7379 633.486 36.1623 635.242 37.3396 635.238 36.7529 633.486C36.7516 633.482 36.7471 633.479 36.743 633.481 36.7406 633.482 36.7387 633.484 36.7379 633.486Z" fill="#3B1E1E"/><path d="M38.419 628.258C33.969 628.271 30.3698 631.132 30.38 634.647 30.3865 636.907 31.8839 638.888 34.135 640.011L33.3838 642.85C33.3429 642.971 33.4078 643.102 33.5287 643.143 33.6031 643.168 33.6852 643.154 33.7466 643.105L37.0068 640.891C37.4868 640.958 37.971 640.991 38.4558 640.989 42.9057 640.977 46.505 638.117 46.4949 634.601 46.4848 631.085 42.869 628.246 38.419 628.258ZM34.3748 636.321C34.3755 636.57 34.2282 636.725 33.9904 636.725 33.7525 636.726 33.6048 636.572 33.6041 636.323L33.596 633.524 32.7853 633.527C32.531 633.527 32.4402 633.339 32.4398 633.177 32.4336 632.989 32.5811 632.832 32.7694 632.825 32.774 632.825 32.7787 632.825 32.7833 632.825L35.1749 632.818C35.3634 632.815 35.5185 632.966 35.5213 633.154 35.5214 633.159 35.5214 633.164 35.5212 633.168 35.5216 633.33 35.4318 633.519 35.1769 633.519L34.3667 633.522ZM38.1051 636.714C37.9314 636.728 37.7724 636.616 37.7283 636.447L37.5583 635.921 35.9478 635.925 35.7766 636.447C35.7387 636.618 35.5812 636.735 35.4068 636.722 35.2057 636.73 35.0356 636.575 35.0267 636.374 35.0266 636.371 35.0265 636.369 35.0265 636.366 35.027 636.308 35.0389 636.251 35.0615 636.197L36.1717 633.23C36.2512 633.013 36.4431 632.78 36.7437 632.78 37.0078 632.779 37.2175 632.942 37.319 633.226L38.4119 636.182C38.437 636.245 38.4519 636.312 38.456 636.38 38.4534 636.567 38.2995 636.717 38.1123 636.714 38.1099 636.714 38.1075 636.714 38.1051 636.714ZM41.0652 636.325C41.0575 636.52 40.8939 636.671 40.6997 636.663 40.6991 636.663 40.6984 636.663 40.6978 636.663L39.2612 636.667C39.0093 636.668 38.8578 636.509 38.8571 636.242L38.8483 633.176C38.8475 632.927 38.9948 632.773 39.2326 632.772 39.4704 632.771 39.6183 632.925 39.6191 633.173L39.6271 635.965 40.6958 635.961C40.7993 635.957 40.9001 635.995 40.9737 636.068 41.0381 636.138 41.0712 636.231 41.0652 636.325ZM44.2745 636.393C44.2453 636.674 43.9735 636.697 43.8908 636.697 43.8707 636.697 43.8506 636.696 43.8306 636.694 43.6882 636.68 43.6079 636.591 43.4586 636.39L42.4421 635.013 42.1659 635.296 42.1689 636.334C42.1694 636.537 42.0047 636.703 41.8011 636.703 41.7956 636.703 41.7901 636.703 41.7848 636.703 41.5537 636.704 41.3985 636.556 41.3979 636.336L41.3887 633.146C41.3827 632.941 41.5436 632.771 41.748 632.765 41.7566 632.764 41.7652 632.764 41.7737 632.765 41.9733 632.751 42.146 632.902 42.1596 633.102 42.1605 633.115 42.1607 633.129 42.16 633.143L42.1635 634.378 43.517 632.959C43.5954 632.872 43.706 632.821 43.8232 632.818 44.0094 632.822 44.1971 632.945 44.1928 633.172 44.1928 633.278 44.1298 633.348 44.0038 633.488 43.9753 633.519 43.9439 633.554 43.9099 633.593L42.9847 634.532 44.0864 635.966C44.2002 636.114 44.2946 636.236 44.2745 636.393Z" fill="#3B1E1E"/></g></svg>